<svg width="44" height="44" viewBox="0 0 44 44" fill="none" xmlns="http://www.w3.org/2000/svg">
<path d="M12.8333 33C10.5458 33 8.35203 32.1308 6.73453 30.5836C5.11703 29.0365 4.20833 26.938 4.20833 24.75C4.20833 22.562 5.11703 20.4635 6.73453 18.9164C8.35203 17.3692 10.5458 16.5 12.8333 16.5C13.3736 14.0932 14.9541 11.978 17.2271 10.62C18.3526 9.94752 19.6142 9.48117 20.9399 9.24754C22.2657 9.01391 23.6295 9.01757 24.9537 9.25833C26.2779 9.49909 27.5364 9.97222 28.6574 10.6507C29.7784 11.3292 30.7399 12.1998 31.4871 13.2127C32.2342 14.2256 32.7524 15.3611 33.012 16.5543C33.2716 17.7474 33.2675 18.9749 33 20.1667H34.8333C36.5351 20.1667 38.1672 20.8427 39.3706 22.0461C40.574 23.2494 41.25 24.8815 41.25 26.5833C41.25 28.2851 40.574 29.9172 39.3706 31.1206C38.1672 32.324 36.5351 33 34.8333 33H12.8333Z" stroke="#023E8A" stroke-width="2.75" stroke-linecap="round" stroke-linejoin="round"/>
</svg>
