<svg width="44" height="44" viewBox="0 0 44 44" fill="none" xmlns="http://www.w3.org/2000/svg">
<path d="M18.3333 25.6667C18.9308 26.2764 19.6439 26.7609 20.4309 27.0916C21.2179 27.4223 22.063 27.5926 22.9167 27.5926C23.7703 27.5926 24.6154 27.4223 25.4024 27.0916C26.1894 26.7609 26.9026 26.2764 27.5 25.6667L34.8333 18.3333C36.0489 17.1178 36.7318 15.4691 36.7318 13.75C36.7318 12.0309 36.0489 10.3822 34.8333 9.16667C33.6178 7.95109 31.9691 7.26819 30.25 7.26819C28.5309 7.26819 26.8822 7.95109 25.6667 9.16667L24.75 10.0833" stroke="white" stroke-width="2.75" stroke-linecap="round" stroke-linejoin="round"/>
<path d="M25.6667 18.3333C25.0692 17.7236 24.3561 17.2391 23.5691 16.9084C22.7821 16.5777 21.937 16.4074 21.0833 16.4074C20.2297 16.4074 19.3846 16.5777 18.5976 16.9084C17.8106 17.2391 17.0974 17.7236 16.5 18.3333L9.16667 25.6667C7.95109 26.8822 7.26819 28.5309 7.26819 30.25C7.26819 31.9691 7.95109 33.6178 9.16667 34.8333C10.3822 36.0489 12.0309 36.7318 13.75 36.7318C15.4691 36.7318 17.1178 36.0489 18.3333 34.8333L19.25 33.9167" stroke="white" stroke-width="2.75" stroke-linecap="round" stroke-linejoin="round"/>
</svg>
