<svg width="44" height="44" viewBox="0 0 44 44" fill="none" xmlns="http://www.w3.org/2000/svg">
<path d="M27.5 14.6667H27.5183" stroke="#023E8A" stroke-width="2.75" stroke-linecap="round" stroke-linejoin="round"/>
<path d="M31.1667 7.33333H12.8333C9.79577 7.33333 7.33333 9.79577 7.33333 12.8333V31.1667C7.33333 34.2042 9.79577 36.6667 12.8333 36.6667H31.1667C34.2042 36.6667 36.6667 34.2042 36.6667 31.1667V12.8333C36.6667 9.79577 34.2042 7.33333 31.1667 7.33333Z" stroke="#023E8A" stroke-width="2.75" stroke-linecap="round" stroke-linejoin="round"/>
<path d="M7.33333 27.5L14.6667 20.1667C15.5028 19.3621 16.4512 18.9386 17.4167 18.9386C18.3821 18.9386 19.3306 19.3621 20.1667 20.1667L29.3333 29.3333" stroke="#023E8A" stroke-width="2.75" stroke-linecap="round" stroke-linejoin="round"/>
<path d="M25.6667 25.6667L27.5 23.8333C28.3361 23.0288 29.2845 22.6052 30.25 22.6052C31.2155 22.6052 32.1639 23.0288 33 23.8333L36.6667 27.5" stroke="#023E8A" stroke-width="2.75" stroke-linecap="round" stroke-linejoin="round"/>
</svg>
